<mxfile host="Electron" agent="Mozilla/5.0 (Windows NT 10.0; Win64; x64) AppleWebKit/537.36 (KHTML, like Gecko) draw.io/27.0.5 Chrome/134.0.6998.205 Electron/35.3.0 Safari/537.36" version="27.0.5">
  <diagram name="Page-1" id="qD4dpsAiRc_fLkRLtmph">
    <mxGraphModel dx="1042" dy="634" grid="1" gridSize="10" guides="1" tooltips="1" connect="1" arrows="1" fold="1" page="1" pageScale="1" pageWidth="1100" pageHeight="850" math="0" shadow="0">
      <root>
        <mxCell id="0" />
        <mxCell id="1" parent="0" />
        <mxCell id="merBDp5Z0AqTk0g_Nte9-1" value="&lt;b&gt;&lt;font style=&quot;font-size: 18px; color: rgb(51, 51, 255);&quot;&gt;SOURCEs&lt;/font&gt;&lt;/b&gt;&lt;div&gt;&lt;br&gt;&lt;/div&gt;&lt;div&gt;&lt;br&gt;&lt;/div&gt;&lt;div&gt;&lt;br&gt;&lt;/div&gt;&lt;div&gt;&lt;br&gt;&lt;/div&gt;&lt;div&gt;&lt;br&gt;&lt;/div&gt;&lt;div&gt;&lt;br&gt;&lt;/div&gt;&lt;div&gt;&lt;br&gt;&lt;/div&gt;&lt;div&gt;&lt;b&gt;CRM&lt;/b&gt;&lt;/div&gt;&lt;div&gt;&lt;br&gt;&lt;/div&gt;&lt;div&gt;&lt;br&gt;&lt;/div&gt;&lt;div&gt;&lt;br&gt;&lt;/div&gt;&lt;div&gt;&lt;br&gt;&lt;/div&gt;&lt;div&gt;&lt;br&gt;&lt;/div&gt;&lt;div&gt;&lt;br&gt;&lt;/div&gt;&lt;div&gt;&lt;br&gt;&lt;/div&gt;&lt;div&gt;&lt;b&gt;ERP&lt;/b&gt;&lt;/div&gt;&lt;div&gt;&lt;br&gt;&lt;/div&gt;" style="rounded=0;whiteSpace=wrap;html=1;dashed=1;dashPattern=12 12;" parent="1" vertex="1">
          <mxGeometry x="53.5" y="170" width="120" height="340" as="geometry" />
        </mxCell>
        <mxCell id="merBDp5Z0AqTk0g_Nte9-2" value="" style="sketch=0;shadow=0;dashed=0;html=1;strokeColor=none;labelPosition=center;verticalLabelPosition=bottom;verticalAlign=top;outlineConnect=0;align=center;shape=mxgraph.office.databases.database_cube;fillColor=#7FBA42;" parent="1" vertex="1">
          <mxGeometry x="90" y="380" width="47" height="52" as="geometry" />
        </mxCell>
        <mxCell id="merBDp5Z0AqTk0g_Nte9-3" value="" style="sketch=0;shadow=0;dashed=0;html=1;strokeColor=none;labelPosition=center;verticalLabelPosition=bottom;verticalAlign=top;outlineConnect=0;align=center;shape=mxgraph.office.databases.database_cube;fillColor=#7FBA42;" parent="1" vertex="1">
          <mxGeometry x="90" y="260" width="47" height="52" as="geometry" />
        </mxCell>
        <mxCell id="merBDp5Z0AqTk0g_Nte9-5" value="" style="rounded=1;whiteSpace=wrap;html=1;fillColor=light-dark(#f7f7f7, #36210a);strokeColor=#d79b00;" parent="1" vertex="1">
          <mxGeometry x="230" y="220" width="160" height="290" as="geometry" />
        </mxCell>
        <mxCell id="merBDp5Z0AqTk0g_Nte9-6" value="BRONZE" style="rounded=1;whiteSpace=wrap;html=1;fillColor=light-dark(#f7f7f7, #36210a);strokeColor=#d79b00;" parent="1" vertex="1">
          <mxGeometry x="230" y="170" width="160" height="45" as="geometry" />
        </mxCell>
        <mxCell id="merBDp5Z0AqTk0g_Nte9-7" value="crm_sales_details" style="rounded=1;whiteSpace=wrap;html=1;" parent="1" vertex="1">
          <mxGeometry x="250" y="260" width="120" height="28" as="geometry" />
        </mxCell>
        <mxCell id="merBDp5Z0AqTk0g_Nte9-8" value="crm_cust_info" style="rounded=1;whiteSpace=wrap;html=1;" parent="1" vertex="1">
          <mxGeometry x="250" y="292" width="120" height="28" as="geometry" />
        </mxCell>
        <mxCell id="merBDp5Z0AqTk0g_Nte9-9" value="erp_px_cat_g1v2" style="rounded=1;whiteSpace=wrap;html=1;" parent="1" vertex="1">
          <mxGeometry x="250" y="440" width="120" height="28" as="geometry" />
        </mxCell>
        <mxCell id="merBDp5Z0AqTk0g_Nte9-11" value="erp_cust_az12" style="rounded=1;whiteSpace=wrap;html=1;" parent="1" vertex="1">
          <mxGeometry x="250" y="376" width="120" height="28" as="geometry" />
        </mxCell>
        <mxCell id="merBDp5Z0AqTk0g_Nte9-12" value="erp_loc_a101" style="rounded=1;whiteSpace=wrap;html=1;" parent="1" vertex="1">
          <mxGeometry x="250" y="408" width="120" height="28" as="geometry" />
        </mxCell>
        <mxCell id="merBDp5Z0AqTk0g_Nte9-13" value="crm_prd_info" style="rounded=1;whiteSpace=wrap;html=1;" parent="1" vertex="1">
          <mxGeometry x="250" y="325" width="120" height="28" as="geometry" />
        </mxCell>
        <mxCell id="merBDp5Z0AqTk0g_Nte9-22" value="" style="rounded=1;whiteSpace=wrap;html=1;fillColor=#fff2cc;strokeColor=#d6b656;" parent="1" vertex="1">
          <mxGeometry x="710" y="219" width="160" height="290" as="geometry" />
        </mxCell>
        <mxCell id="merBDp5Z0AqTk0g_Nte9-23" value="GOLD" style="rounded=1;whiteSpace=wrap;html=1;fillColor=#fff2cc;strokeColor=#d6b656;" parent="1" vertex="1">
          <mxGeometry x="710" y="169" width="160" height="45" as="geometry" />
        </mxCell>
        <mxCell id="merBDp5Z0AqTk0g_Nte9-24" value="fact_sales" style="rounded=1;whiteSpace=wrap;html=1;" parent="1" vertex="1">
          <mxGeometry x="730" y="259" width="120" height="28" as="geometry" />
        </mxCell>
        <mxCell id="merBDp5Z0AqTk0g_Nte9-28" value="dim_products" style="rounded=1;whiteSpace=wrap;html=1;" parent="1" vertex="1">
          <mxGeometry x="730" y="430" width="120" height="28" as="geometry" />
        </mxCell>
        <mxCell id="merBDp5Z0AqTk0g_Nte9-29" value="dim_customers" style="rounded=1;whiteSpace=wrap;html=1;" parent="1" vertex="1">
          <mxGeometry x="730" y="353" width="120" height="28" as="geometry" />
        </mxCell>
        <mxCell id="merBDp5Z0AqTk0g_Nte9-30" value="" style="rounded=1;whiteSpace=wrap;html=1;" parent="1" vertex="1">
          <mxGeometry x="480" y="250" width="120" height="28" as="geometry" />
        </mxCell>
        <mxCell id="merBDp5Z0AqTk0g_Nte9-31" value="" style="rounded=1;whiteSpace=wrap;html=1;" parent="1" vertex="1">
          <mxGeometry x="480" y="282" width="120" height="28" as="geometry" />
        </mxCell>
        <mxCell id="merBDp5Z0AqTk0g_Nte9-32" value="" style="rounded=1;whiteSpace=wrap;html=1;" parent="1" vertex="1">
          <mxGeometry x="480" y="430" width="120" height="28" as="geometry" />
        </mxCell>
        <mxCell id="merBDp5Z0AqTk0g_Nte9-33" value="" style="rounded=1;whiteSpace=wrap;html=1;" parent="1" vertex="1">
          <mxGeometry x="480" y="366" width="120" height="28" as="geometry" />
        </mxCell>
        <mxCell id="merBDp5Z0AqTk0g_Nte9-34" value="" style="rounded=1;whiteSpace=wrap;html=1;" parent="1" vertex="1">
          <mxGeometry x="480" y="398" width="120" height="28" as="geometry" />
        </mxCell>
        <mxCell id="merBDp5Z0AqTk0g_Nte9-35" value="" style="rounded=1;whiteSpace=wrap;html=1;" parent="1" vertex="1">
          <mxGeometry x="480" y="315" width="120" height="28" as="geometry" />
        </mxCell>
        <mxCell id="merBDp5Z0AqTk0g_Nte9-36" value="" style="rounded=1;whiteSpace=wrap;html=1;fillColor=#f5f5f5;strokeColor=light-dark(#b0b0b0, #959595);gradientColor=none;" parent="1" vertex="1">
          <mxGeometry x="470" y="220" width="160" height="290" as="geometry" />
        </mxCell>
        <mxCell id="merBDp5Z0AqTk0g_Nte9-37" value="SILVER" style="rounded=1;whiteSpace=wrap;html=1;fillColor=#f5f5f5;strokeColor=light-dark(#9e9e9e, #959595);gradientColor=none;" parent="1" vertex="1">
          <mxGeometry x="470" y="170" width="160" height="45" as="geometry" />
        </mxCell>
        <mxCell id="merBDp5Z0AqTk0g_Nte9-38" value="crm_sales_details" style="rounded=1;whiteSpace=wrap;html=1;" parent="1" vertex="1">
          <mxGeometry x="490" y="260" width="120" height="28" as="geometry" />
        </mxCell>
        <mxCell id="merBDp5Z0AqTk0g_Nte9-39" value="crm_cust_info" style="rounded=1;whiteSpace=wrap;html=1;" parent="1" vertex="1">
          <mxGeometry x="490" y="292" width="120" height="28" as="geometry" />
        </mxCell>
        <mxCell id="merBDp5Z0AqTk0g_Nte9-40" value="erp_px_cat_g1v2" style="rounded=1;whiteSpace=wrap;html=1;" parent="1" vertex="1">
          <mxGeometry x="490" y="440" width="120" height="28" as="geometry" />
        </mxCell>
        <mxCell id="merBDp5Z0AqTk0g_Nte9-41" value="erp_cust_az12" style="rounded=1;whiteSpace=wrap;html=1;" parent="1" vertex="1">
          <mxGeometry x="490" y="376" width="120" height="28" as="geometry" />
        </mxCell>
        <mxCell id="merBDp5Z0AqTk0g_Nte9-42" value="erp_loc_a101" style="rounded=1;whiteSpace=wrap;html=1;" parent="1" vertex="1">
          <mxGeometry x="490" y="408" width="120" height="28" as="geometry" />
        </mxCell>
        <mxCell id="merBDp5Z0AqTk0g_Nte9-43" value="crm_prd_info" style="rounded=1;whiteSpace=wrap;html=1;" parent="1" vertex="1">
          <mxGeometry x="490" y="325" width="120" height="28" as="geometry" />
        </mxCell>
        <mxCell id="merBDp5Z0AqTk0g_Nte9-44" value="" style="endArrow=classic;html=1;rounded=0;exitX=1;exitY=0.5;exitDx=0;exitDy=0;entryX=0;entryY=0.5;entryDx=0;entryDy=0;" parent="1" source="merBDp5Z0AqTk0g_Nte9-40" target="merBDp5Z0AqTk0g_Nte9-28" edge="1">
          <mxGeometry width="50" height="50" relative="1" as="geometry">
            <mxPoint x="690" y="460" as="sourcePoint" />
            <mxPoint x="740" y="410" as="targetPoint" />
          </mxGeometry>
        </mxCell>
        <mxCell id="merBDp5Z0AqTk0g_Nte9-45" value="" style="endArrow=classic;html=1;rounded=0;exitX=1;exitY=0.75;exitDx=0;exitDy=0;entryX=0;entryY=0.5;entryDx=0;entryDy=0;" parent="1" source="merBDp5Z0AqTk0g_Nte9-43" target="merBDp5Z0AqTk0g_Nte9-28" edge="1">
          <mxGeometry width="50" height="50" relative="1" as="geometry">
            <mxPoint x="620" y="464" as="sourcePoint" />
            <mxPoint x="730" y="440" as="targetPoint" />
          </mxGeometry>
        </mxCell>
        <mxCell id="merBDp5Z0AqTk0g_Nte9-46" value="" style="endArrow=classic;html=1;rounded=0;exitX=1;exitY=0.75;exitDx=0;exitDy=0;" parent="1" edge="1">
          <mxGeometry width="50" height="50" relative="1" as="geometry">
            <mxPoint x="610" y="304" as="sourcePoint" />
            <mxPoint x="730" y="367" as="targetPoint" />
          </mxGeometry>
        </mxCell>
        <mxCell id="merBDp5Z0AqTk0g_Nte9-47" value="" style="endArrow=classic;html=1;rounded=0;exitX=1;exitY=0.75;exitDx=0;exitDy=0;entryX=0;entryY=0.5;entryDx=0;entryDy=0;" parent="1" target="merBDp5Z0AqTk0g_Nte9-29" edge="1">
          <mxGeometry width="50" height="50" relative="1" as="geometry">
            <mxPoint x="610" y="390" as="sourcePoint" />
            <mxPoint x="730" y="484" as="targetPoint" />
          </mxGeometry>
        </mxCell>
        <mxCell id="merBDp5Z0AqTk0g_Nte9-48" value="" style="endArrow=classic;html=1;rounded=0;exitX=1;exitY=0.75;exitDx=0;exitDy=0;" parent="1" edge="1">
          <mxGeometry width="50" height="50" relative="1" as="geometry">
            <mxPoint x="610" y="425" as="sourcePoint" />
            <mxPoint x="730" y="370" as="targetPoint" />
          </mxGeometry>
        </mxCell>
        <mxCell id="merBDp5Z0AqTk0g_Nte9-49" value="" style="endArrow=classic;html=1;rounded=0;exitX=1;exitY=0.75;exitDx=0;exitDy=0;" parent="1" target="merBDp5Z0AqTk0g_Nte9-24" edge="1">
          <mxGeometry width="50" height="50" relative="1" as="geometry">
            <mxPoint x="610" y="272" as="sourcePoint" />
            <mxPoint x="730" y="366" as="targetPoint" />
          </mxGeometry>
        </mxCell>
        <mxCell id="merBDp5Z0AqTk0g_Nte9-50" value="" style="endArrow=none;html=1;rounded=0;" parent="1" edge="1">
          <mxGeometry width="50" height="50" relative="1" as="geometry">
            <mxPoint x="53.5" y="130" as="sourcePoint" />
            <mxPoint x="870" y="130" as="targetPoint" />
          </mxGeometry>
        </mxCell>
        <mxCell id="merBDp5Z0AqTk0g_Nte9-51" value="" style="edgeStyle=elbowEdgeStyle;elbow=horizontal;endArrow=classic;html=1;curved=0;rounded=0;endSize=8;startSize=8;entryX=0;entryY=0.5;entryDx=0;entryDy=0;" parent="1" target="merBDp5Z0AqTk0g_Nte9-7" edge="1">
          <mxGeometry width="50" height="50" relative="1" as="geometry">
            <mxPoint x="137" y="282" as="sourcePoint" />
            <mxPoint x="187" y="232" as="targetPoint" />
          </mxGeometry>
        </mxCell>
        <mxCell id="merBDp5Z0AqTk0g_Nte9-52" value="" style="edgeStyle=elbowEdgeStyle;elbow=horizontal;endArrow=classic;html=1;curved=0;rounded=0;endSize=8;startSize=8;entryX=0;entryY=0.5;entryDx=0;entryDy=0;" parent="1" target="merBDp5Z0AqTk0g_Nte9-13" edge="1">
          <mxGeometry width="50" height="50" relative="1" as="geometry">
            <mxPoint x="137" y="296" as="sourcePoint" />
            <mxPoint x="250" y="288" as="targetPoint" />
          </mxGeometry>
        </mxCell>
        <mxCell id="merBDp5Z0AqTk0g_Nte9-53" value="" style="edgeStyle=elbowEdgeStyle;elbow=horizontal;endArrow=classic;html=1;curved=0;rounded=0;endSize=8;startSize=8;entryX=0;entryY=0.5;entryDx=0;entryDy=0;" parent="1" source="merBDp5Z0AqTk0g_Nte9-3" target="merBDp5Z0AqTk0g_Nte9-8" edge="1">
          <mxGeometry width="50" height="50" relative="1" as="geometry">
            <mxPoint x="140" y="290" as="sourcePoint" />
            <mxPoint x="243" y="287" as="targetPoint" />
          </mxGeometry>
        </mxCell>
        <mxCell id="merBDp5Z0AqTk0g_Nte9-54" value="" style="edgeStyle=elbowEdgeStyle;elbow=horizontal;endArrow=classic;html=1;curved=0;rounded=0;endSize=8;startSize=8;entryX=0;entryY=0.5;entryDx=0;entryDy=0;" parent="1" edge="1">
          <mxGeometry width="50" height="50" relative="1" as="geometry">
            <mxPoint x="137" y="401" as="sourcePoint" />
            <mxPoint x="250" y="393" as="targetPoint" />
          </mxGeometry>
        </mxCell>
        <mxCell id="merBDp5Z0AqTk0g_Nte9-55" value="" style="edgeStyle=elbowEdgeStyle;elbow=horizontal;endArrow=classic;html=1;curved=0;rounded=0;endSize=8;startSize=8;entryX=0;entryY=0.5;entryDx=0;entryDy=0;" parent="1" edge="1">
          <mxGeometry width="50" height="50" relative="1" as="geometry">
            <mxPoint x="137" y="415" as="sourcePoint" />
            <mxPoint x="250" y="458" as="targetPoint" />
          </mxGeometry>
        </mxCell>
        <mxCell id="merBDp5Z0AqTk0g_Nte9-56" value="" style="edgeStyle=elbowEdgeStyle;elbow=horizontal;endArrow=classic;html=1;curved=0;rounded=0;endSize=8;startSize=8;entryX=0;entryY=0.5;entryDx=0;entryDy=0;" parent="1" source="merBDp5Z0AqTk0g_Nte9-2" edge="1">
          <mxGeometry width="50" height="50" relative="1" as="geometry">
            <mxPoint x="140" y="409" as="sourcePoint" />
            <mxPoint x="250" y="425" as="targetPoint" />
          </mxGeometry>
        </mxCell>
        <mxCell id="merBDp5Z0AqTk0g_Nte9-57" value="&lt;b&gt;&lt;font style=&quot;font-size: 42px;&quot;&gt;DATA FLOW&amp;nbsp;&lt;/font&gt;&lt;/b&gt;" style="text;html=1;align=center;verticalAlign=middle;resizable=0;points=[];autosize=1;strokeColor=none;fillColor=none;" parent="1" vertex="1">
          <mxGeometry x="53.5" y="63" width="280" height="60" as="geometry" />
        </mxCell>
        <mxCell id="merBDp5Z0AqTk0g_Nte9-58" value="&lt;font style=&quot;font-size: 17px;&quot;&gt;@ParthTailor&lt;/font&gt;" style="text;html=1;align=center;verticalAlign=middle;resizable=0;points=[];autosize=1;strokeColor=none;fillColor=none;" parent="1" vertex="1">
          <mxGeometry x="750" y="93" width="120" height="30" as="geometry" />
        </mxCell>
        <mxCell id="Gj4eeFKWlNTxLDTju4dx-3" value="" style="endArrow=classic;html=1;rounded=0;exitX=1;exitY=0.5;exitDx=0;exitDy=0;" parent="1" source="merBDp5Z0AqTk0g_Nte9-13" edge="1">
          <mxGeometry width="50" height="50" relative="1" as="geometry">
            <mxPoint x="370" y="335.5" as="sourcePoint" />
            <mxPoint x="490" y="339" as="targetPoint" />
          </mxGeometry>
        </mxCell>
        <mxCell id="Gj4eeFKWlNTxLDTju4dx-6" value="" style="endArrow=classic;html=1;rounded=0;exitX=1;exitY=0.5;exitDx=0;exitDy=0;" parent="1" edge="1">
          <mxGeometry width="50" height="50" relative="1" as="geometry">
            <mxPoint x="370" y="309" as="sourcePoint" />
            <mxPoint x="490" y="309" as="targetPoint" />
          </mxGeometry>
        </mxCell>
        <mxCell id="Gj4eeFKWlNTxLDTju4dx-7" value="" style="endArrow=classic;html=1;rounded=0;exitX=1;exitY=0.5;exitDx=0;exitDy=0;" parent="1" edge="1">
          <mxGeometry width="50" height="50" relative="1" as="geometry">
            <mxPoint x="370" y="273.5" as="sourcePoint" />
            <mxPoint x="490" y="273.5" as="targetPoint" />
          </mxGeometry>
        </mxCell>
        <mxCell id="Gj4eeFKWlNTxLDTju4dx-8" value="" style="endArrow=classic;html=1;rounded=0;exitX=1;exitY=0.5;exitDx=0;exitDy=0;" parent="1" edge="1">
          <mxGeometry width="50" height="50" relative="1" as="geometry">
            <mxPoint x="370" y="389.5" as="sourcePoint" />
            <mxPoint x="490" y="389.5" as="targetPoint" />
          </mxGeometry>
        </mxCell>
        <mxCell id="Gj4eeFKWlNTxLDTju4dx-9" value="" style="endArrow=classic;html=1;rounded=0;exitX=1;exitY=0.5;exitDx=0;exitDy=0;" parent="1" edge="1">
          <mxGeometry width="50" height="50" relative="1" as="geometry">
            <mxPoint x="370" y="425" as="sourcePoint" />
            <mxPoint x="490" y="425" as="targetPoint" />
          </mxGeometry>
        </mxCell>
        <mxCell id="Gj4eeFKWlNTxLDTju4dx-10" value="" style="endArrow=classic;html=1;rounded=0;exitX=1;exitY=0.5;exitDx=0;exitDy=0;" parent="1" edge="1">
          <mxGeometry width="50" height="50" relative="1" as="geometry">
            <mxPoint x="370" y="453.5" as="sourcePoint" />
            <mxPoint x="490" y="453.5" as="targetPoint" />
          </mxGeometry>
        </mxCell>
      </root>
    </mxGraphModel>
  </diagram>
</mxfile>
